# xmcd CD database file
#
# Track frame offsets:
#	150
#	22502
#	42810
#	65747
#	87145
#	104217
#	122317
#	144735
#	172342
#	191397
#	212382
#
# Disc length: 3264 seconds
#
# Revision: 0
# Processed by: cddbd v1.5.2PL0 Copyright (c) Steve Scherf et al.
# Submitted via: CDex 1.51
#
DISCID=920cbe0b
DTITLE=Jesse Fortune - Fortune Tellin' Man
DYEAR=1993
DGENRE=Blues
TTITLE0=Dark Is The Night
TTITLE1=Fortune Tellin' Man
TTITLE2=Get Mad At My Money
TTITLE3=Sandu
TTITLE4=Too Many Cooks
TTITLE5=Lovingest Woman In Town
TTITLE6=Specter's Walk
TTITLE7=Gambler's Blues
TTITLE8=Be Careful With The Fool
TTITLE9=Ain't ABout Money
TTITLE10=Losing Hand
EXTD=YEAR: 1993
EXTT0=
EXTT1=
EXTT2=
EXTT3=
EXTT4=
EXTT5=
EXTT6=
EXTT7=
EXTT8=
EXTT9=
EXTT10=
PLAYORDER=
